<svg width="887.53125px" height="470px" class="sequence simple" xmlns="http://www.w3.org/2000/svg" xmlns:xlink="http://www.w3.org/1999/xlink"><desc></desc><defs><marker viewBox="0 0 5 5" markerWidth="5" markerHeight="5" orient="auto" refX="5" refY="2.5" id="markerArrowBlock"><path d="M 0 0 L 5 2.5 L 0 5 z"></path></marker><marker viewBox="0 0 9.6 16" markerWidth="4" markerHeight="16" orient="auto" refX="9.6" refY="8" id="markerArrowOpen"><path d="M 9.6,8 1.92,16 0,13.7 5.76,8 0,2.286 1.92,0 9.6,8 z"></path></marker></defs><g class="title"></g><g class="actor"><rect x="43.40625" y="20" width="48.8125" height="38" stroke="#000000" fill="#ffffff" style="stroke-width: 2;"></rect><text x="53.40625" y="44.5" style="font-size: 16px; font-family: &quot;Andale Mono&quot;, monospace;"><tspan x="53.40625">src</tspan></text></g><g class="actor"><rect x="43.40625" y="412" width="48.8125" height="38" stroke="#000000" fill="#ffffff" style="stroke-width: 2;"></rect><text x="53.40625" y="436.5" style="font-size: 16px; font-family: &quot;Andale Mono&quot;, monospace;"><tspan x="53.40625">src</tspan></text></g><line x1="67.8125" x2="67.8125" y1="58" y2="412" stroke="#000000" fill="none" style="stroke-width: 2;"></line><g class="actor"><rect x="337.0546875" y="20" width="77.609375" height="38" stroke="#000000" fill="#ffffff" style="stroke-width: 2;"></rect><text x="347.0546875" y="44.5" style="font-size: 16px; font-family: &quot;Andale Mono&quot;, monospace;"><tspan x="347.0546875">Docker</tspan></text></g><g class="actor"><rect x="337.0546875" y="412" width="77.609375" height="38" stroke="#000000" fill="#ffffff" style="stroke-width: 2;"></rect><text x="347.0546875" y="436.5" style="font-size: 16px; font-family: &quot;Andale Mono&quot;, monospace;"><tspan x="347.0546875">Docker</tspan></text></g><line x1="375.859375" x2="375.859375" y1="58" y2="412" stroke="#000000" fill="none" style="stroke-width: 2;"></line><g class="actor"><rect x="544.0859375" y="20" width="116.015625" height="38" stroke="#000000" fill="#ffffff" style="stroke-width: 2;"></rect><text x="554.0859375" y="44.5" style="font-size: 16px; font-family: &quot;Andale Mono&quot;, monospace;"><tspan x="554.0859375">Emscripten</tspan></text></g><g class="actor"><rect x="544.0859375" y="412" width="116.015625" height="38" stroke="#000000" fill="#ffffff" style="stroke-width: 2;"></rect><text x="554.0859375" y="436.5" style="font-size: 16px; font-family: &quot;Andale Mono&quot;, monospace;"><tspan x="554.0859375">Emscripten</tspan></text></g><line x1="602.09375" x2="602.09375" y1="58" y2="412" stroke="#000000" fill="none" style="stroke-width: 2;"></line><g class="actor"><rect x="799.125" y="20" width="58.40625" height="38" stroke="#000000" fill="#ffffff" style="stroke-width: 2;"></rect><text x="809.125" y="44.5" style="font-size: 16px; font-family: &quot;Andale Mono&quot;, monospace;"><tspan x="809.125">dist</tspan></text></g><g class="actor"><rect x="799.125" y="412" width="58.40625" height="38" stroke="#000000" fill="#ffffff" style="stroke-width: 2;"></rect><text x="809.125" y="436.5" style="font-size: 16px; font-family: &quot;Andale Mono&quot;, monospace;"><tspan x="809.125">dist</tspan></text></g><line x1="828.328125" x2="828.328125" y1="58" y2="412" stroke="#000000" fill="none" style="stroke-width: 2;"></line><g class="note"><rect x="10" y="78" width="115.625" height="28" stroke="#000000" fill="#ffffff" style="stroke-width: 2;"></rect><text x="15" y="97.5" style="font-size: 16px; font-family: &quot;Andale Mono&quot;, monospace;"><tspan x="15">source code</tspan></text></g><g class="note"><rect x="198.03125" y="126" width="355.65625" height="28" stroke="#000000" fill="#ffffff" style="stroke-width: 2;"></rect><text x="203.03125" y="145.5" style="font-size: 16px; font-family: &quot;Andale Mono&quot;, monospace;"><tspan x="203.03125">Build docker image emscripten + lame</tspan></text></g><g class="signal"><text x="77.8125" y="184.5" style="font-size: 16px; font-family: &quot;Andale Mono&quot;, monospace;"><tspan x="77.8125">Move source C code into docker</tspan></text><line x1="67.8125" x2="375.859375" y1="192" y2="192" stroke="#000000" fill="none" style="stroke-width: 2; marker-end: url(&quot;#markerArrowBlock&quot;);"></line></g><g class="signal"><text x="392.9609375" y="222.5" style="font-size: 16px; font-family: &quot;Andale Mono&quot;, monospace;"><tspan x="392.9609375">Source C Code + lame</tspan></text><line x1="375.859375" x2="602.09375" y1="230" y2="230" stroke="#000000" fill="none" style="stroke-width: 2; marker-end: url(&quot;#markerArrowBlock&quot;);"></line></g><g class="note"><rect x="385.859375" y="250" width="432.46875" height="28" stroke="#000000" fill="#ffffff" style="stroke-width: 2;"></rect><text x="390.859375" y="269.5" style="font-size: 16px; font-family: &quot;Andale Mono&quot;, monospace;"><tspan x="390.859375">Compile source C Code + lame to web assembly</tspan></text></g><g class="signal"><text x="450.5703125" y="308.5" style="font-size: 16px; font-family: &quot;Andale Mono&quot;, monospace;"><tspan x="450.5703125">out.wasm</tspan></text><line x1="602.09375" x2="375.859375" y1="316" y2="316" stroke="#000000" fill="none" style="stroke-width: 2; marker-end: url(&quot;#markerArrowBlock&quot;);"></line></g><g class="signal"><text x="563.6875" y="346.5" style="font-size: 16px; font-family: &quot;Andale Mono&quot;, monospace;"><tspan x="563.6875">out.wasm</tspan></text><line x1="375.859375" x2="828.328125" y1="354" y2="354" stroke="#000000" fill="none" style="stroke-width: 2; marker-end: url(&quot;#markerArrowBlock&quot;);"></line></g><g class="signal"><text x="289.640625" y="384.5" style="font-size: 16px; font-family: &quot;Andale Mono&quot;, monospace;"><tspan x="289.640625">other Javascript application code</tspan></text><line x1="67.8125" x2="828.328125" y1="392" y2="392" stroke="#000000" fill="none" style="stroke-width: 2; marker-end: url(&quot;#markerArrowBlock&quot;);"></line></g></svg>